<?xml version="1.0" encoding="UTF-8"?>
<svg xmlns="http://www.w3.org/2000/svg" xmlns:xlink="http://www.w3.org/1999/xlink" width="329.333333" height="109.333333" viewBox="0 0 329.333333 109.333333" version="1.1">
<g id="surface1">
<path style=" stroke:none;fill-rule:nonzero;fill:rgb(0%,0%,0%);fill-opacity:1;" d="M 15.964844 18.082031 C 16.269531 18.082031 16.488281 18.140625 16.613281 18.25 C 16.746094 18.347656 16.820312 18.511719 16.820312 18.730469 C 16.820312 18.953125 16.757812 19.121094 16.632812 19.230469 C 16.507812 19.328125 16.308594 19.375 16.050781 19.375 L 12.363281 19.375 L 12.363281 22.417969 C 12.363281 23.417969 12.488281 24.078125 12.738281 24.394531 C 12.996094 24.703125 13.449219 24.855469 14.089844 24.855469 C 14.632812 24.855469 15.285156 24.699219 16.050781 24.375 C 16.824219 24.058594 17.308594 23.894531 17.507812 23.894531 C 17.675781 23.894531 17.808594 23.957031 17.925781 24.082031 C 18.050781 24.199219 18.113281 24.34375 18.113281 24.519531 C 18.113281 24.730469 18.035156 24.910156 17.882812 25.0625 C 17.726562 25.203125 17.476562 25.34375 17.132812 25.480469 C 16.535156 25.71875 15.992188 25.890625 15.507812 26 C 15.035156 26.109375 14.589844 26.167969 14.175781 26.167969 C 13.464844 26.167969 12.867188 26.050781 12.382812 25.832031 C 11.894531 25.597656 11.535156 25.261719 11.300781 24.8125 C 11.175781 24.59375 11.082031 24.332031 11.027344 24.042969 C 10.988281 23.75 10.964844 23.308594 10.964844 22.707031 L 10.964844 19.375 L 9.425781 19.375 C 9.160156 19.375 8.972656 19.328125 8.863281 19.230469 C 8.746094 19.121094 8.695312 18.953125 8.695312 18.730469 C 8.695312 18.480469 8.769531 18.3125 8.925781 18.230469 C 9.074219 18.136719 9.410156 18.082031 9.925781 18.082031 L 10.964844 18.082031 L 10.964844 15.730469 C 10.964844 15.480469 11.019531 15.292969 11.132812 15.167969 C 11.242188 15.042969 11.414062 14.980469 11.652344 14.980469 C 11.914062 14.980469 12.097656 15.058594 12.195312 15.207031 C 12.304688 15.347656 12.363281 15.6875 12.363281 16.230469 L 12.363281 18.082031 Z M 15.964844 18.082031 "/>
<path style=" stroke:none;fill-rule:nonzero;fill:rgb(0%,0%,0%);fill-opacity:1;" d="M 21.25 24.707031 L 21.25 15.375 L 21.085938 15.375 C 20.667969 15.375 20.382812 15.328125 20.230469 15.230469 C 20.074219 15.136719 20 14.96875 20 14.730469 C 20 14.511719 20.0625 14.34375 20.1875 14.230469 C 20.3125 14.121094 20.492188 14.0625 20.730469 14.0625 L 22.105469 14.0625 C 22.273438 14.0625 22.398438 14.097656 22.480469 14.167969 C 22.574219 14.238281 22.625 14.328125 22.625 14.4375 L 22.625 18.5625 C 23.070312 18.160156 23.507812 17.863281 23.9375 17.667969 C 24.382812 17.457031 24.835938 17.355469 25.292969 17.355469 C 26.210938 17.355469 26.929688 17.640625 27.460938 18.207031 C 27.984375 18.78125 28.25 19.574219 28.25 20.582031 L 28.25 24.707031 L 28.6875 24.707031 C 28.992188 24.707031 29.210938 24.765625 29.335938 24.875 C 29.46875 24.972656 29.542969 25.125 29.542969 25.332031 C 29.542969 25.558594 29.480469 25.722656 29.355469 25.832031 C 29.230469 25.949219 29.046875 26 28.8125 26 L 26.375 26 C 26.09375 26 25.902344 25.953125 25.792969 25.855469 C 25.695312 25.761719 25.648438 25.582031 25.648438 25.332031 C 25.648438 25.097656 25.710938 24.9375 25.835938 24.855469 C 25.960938 24.761719 26.195312 24.707031 26.542969 24.707031 L 26.875 24.707031 L 26.875 20.917969 C 26.875 20.207031 26.710938 19.667969 26.375 19.292969 C 26.054688 18.917969 25.589844 18.730469 24.980469 18.730469 C 24.355469 18.730469 23.804688 18.949219 23.335938 19.375 C 22.859375 19.792969 22.625 20.308594 22.625 20.917969 L 22.625 24.707031 L 22.960938 24.707031 C 23.320312 24.707031 23.5625 24.761719 23.6875 24.855469 C 23.8125 24.9375 23.875 25.097656 23.875 25.332031 C 23.875 25.582031 23.824219 25.761719 23.730469 25.855469 C 23.632812 25.953125 23.4375 26 23.148438 26 L 20.730469 26 C 20.492188 26 20.3125 25.949219 20.1875 25.832031 C 20.074219 25.722656 20.023438 25.558594 20.023438 25.332031 C 20.023438 25.097656 20.089844 24.9375 20.230469 24.855469 C 20.367188 24.761719 20.648438 24.707031 21.0625 24.707031 Z M 21.25 24.707031 "/>
<path style=" stroke:none;fill-rule:nonzero;fill:rgb(0%,0%,0%);fill-opacity:1;" d="M 32.808594 22.1875 C 32.847656 23.0625 33.140625 23.746094 33.683594 24.230469 C 34.234375 24.703125 34.980469 24.9375 35.910156 24.9375 C 36.628906 24.9375 37.410156 24.75 38.246094 24.375 C 39.078125 23.988281 39.582031 23.792969 39.765625 23.792969 C 39.941406 23.792969 40.097656 23.855469 40.222656 23.980469 C 40.347656 24.09375 40.410156 24.230469 40.410156 24.394531 C 40.410156 24.578125 40.339844 24.746094 40.203125 24.894531 C 40.078125 25.035156 39.875 25.175781 39.597656 25.3125 C 38.984375 25.605469 38.355469 25.832031 37.703125 26 C 37.0625 26.152344 36.421875 26.230469 35.785156 26.230469 C 34.410156 26.230469 33.308594 25.832031 32.472656 25.042969 C 31.640625 24.238281 31.222656 23.175781 31.222656 21.855469 C 31.222656 20.511719 31.660156 19.417969 32.535156 18.582031 C 33.421875 17.75 34.566406 17.332031 35.972656 17.332031 C 37.265625 17.332031 38.328125 17.722656 39.160156 18.5 C 40.003906 19.28125 40.433594 20.222656 40.433594 21.332031 C 40.433594 21.667969 40.359375 21.894531 40.222656 22.019531 C 40.082031 22.136719 39.691406 22.1875 39.058594 22.1875 Z M 32.847656 21 L 38.785156 21 C 38.6875 20.28125 38.378906 19.699219 37.871094 19.25 C 37.355469 18.808594 36.722656 18.582031 35.972656 18.582031 C 35.167969 18.582031 34.484375 18.800781 33.933594 19.230469 C 33.390625 19.660156 33.027344 20.25 32.847656 21 Z M 32.847656 21 "/>
<path style=" stroke:none;fill-rule:nonzero;fill:rgb(0%,0%,0%);fill-opacity:1;" d="M 60.773438 18.082031 C 61.074219 18.082031 61.292969 18.140625 61.417969 18.25 C 61.554688 18.347656 61.628906 18.511719 61.628906 18.730469 C 61.628906 18.953125 61.566406 19.121094 61.441406 19.230469 C 61.316406 19.328125 61.117188 19.375 60.855469 19.375 L 57.167969 19.375 L 57.167969 22.417969 C 57.167969 23.417969 57.292969 24.078125 57.542969 24.394531 C 57.804688 24.703125 58.257812 24.855469 58.898438 24.855469 C 59.441406 24.855469 60.089844 24.699219 60.855469 24.375 C 61.632812 24.058594 62.117188 23.894531 62.316406 23.894531 C 62.480469 23.894531 62.617188 23.957031 62.730469 24.082031 C 62.855469 24.199219 62.917969 24.34375 62.917969 24.519531 C 62.917969 24.730469 62.839844 24.910156 62.691406 25.0625 C 62.535156 25.203125 62.285156 25.34375 61.941406 25.480469 C 61.339844 25.71875 60.800781 25.890625 60.316406 26 C 59.839844 26.109375 59.398438 26.167969 58.980469 26.167969 C 58.273438 26.167969 57.675781 26.050781 57.191406 25.832031 C 56.699219 25.597656 56.339844 25.261719 56.105469 24.8125 C 55.980469 24.59375 55.886719 24.332031 55.835938 24.042969 C 55.792969 23.75 55.773438 23.308594 55.773438 22.707031 L 55.773438 19.375 L 54.230469 19.375 C 53.964844 19.375 53.777344 19.328125 53.667969 19.230469 C 53.554688 19.121094 53.503906 18.953125 53.503906 18.730469 C 53.503906 18.480469 53.574219 18.3125 53.730469 18.230469 C 53.882812 18.136719 54.214844 18.082031 54.730469 18.082031 L 55.773438 18.082031 L 55.773438 15.730469 C 55.773438 15.480469 55.824219 15.292969 55.941406 15.167969 C 56.050781 15.042969 56.222656 14.980469 56.460938 14.980469 C 56.722656 14.980469 56.902344 15.058594 57.003906 15.207031 C 57.113281 15.347656 57.167969 15.6875 57.167969 16.230469 L 57.167969 18.082031 Z M 60.773438 18.082031 "/>
<path style=" stroke:none;fill-rule:nonzero;fill:rgb(0%,0%,0%);fill-opacity:1;" d="M 68.640625 14.957031 C 68.640625 14.292969 68.695312 13.875 68.808594 13.707031 C 68.933594 13.542969 69.1875 13.457031 69.578125 13.457031 C 69.964844 13.457031 70.214844 13.535156 70.328125 13.6875 C 70.453125 13.828125 70.515625 14.160156 70.515625 14.6875 C 70.515625 15.21875 70.460938 15.542969 70.351562 15.667969 C 70.234375 15.792969 69.980469 15.855469 69.578125 15.855469 C 69.1875 15.855469 68.933594 15.800781 68.808594 15.6875 C 68.695312 15.5625 68.640625 15.324219 68.640625 14.957031 Z M 70.328125 24.707031 L 73.265625 24.707031 C 73.5 24.707031 73.671875 24.765625 73.789062 24.875 C 73.898438 24.972656 73.953125 25.125 73.953125 25.332031 C 73.953125 25.582031 73.898438 25.761719 73.789062 25.855469 C 73.6875 25.953125 73.496094 26 73.203125 26 L 66.140625 26 C 65.890625 26 65.703125 25.949219 65.578125 25.832031 C 65.464844 25.722656 65.414062 25.558594 65.414062 25.332031 C 65.414062 25.125 65.476562 24.972656 65.601562 24.875 C 65.726562 24.765625 65.914062 24.707031 66.164062 24.707031 L 68.953125 24.707031 L 68.953125 18.875 L 67.183594 18.875 C 66.933594 18.875 66.734375 18.824219 66.601562 18.707031 C 66.476562 18.597656 66.414062 18.433594 66.414062 18.207031 C 66.414062 18 66.464844 17.847656 66.578125 17.75 C 66.703125 17.640625 66.890625 17.582031 67.140625 17.582031 L 69.808594 17.582031 C 69.976562 17.582031 70.101562 17.621094 70.183594 17.6875 C 70.277344 17.746094 70.328125 17.832031 70.328125 17.957031 Z M 70.328125 24.707031 "/>
<path style=" stroke:none;fill-rule:nonzero;fill:rgb(0%,0%,0%);fill-opacity:1;" d="M 84.074219 20.917969 C 84.074219 20.074219 83.996094 19.496094 83.84375 19.1875 C 83.6875 18.886719 83.425781 18.730469 83.050781 18.730469 C 82.59375 18.730469 82.230469 18.925781 81.96875 19.3125 C 81.703125 19.703125 81.574219 20.238281 81.574219 20.917969 L 81.574219 24.707031 L 81.738281 24.707031 C 82.113281 24.707031 82.363281 24.761719 82.488281 24.855469 C 82.613281 24.9375 82.675781 25.097656 82.675781 25.332031 C 82.675781 25.558594 82.621094 25.722656 82.511719 25.832031 C 82.410156 25.949219 82.25 26 82.03125 26 L 80.886719 26 C 80.621094 26 80.4375 25.9375 80.34375 25.8125 C 80.246094 25.6875 80.199219 25.433594 80.199219 25.042969 L 80.199219 20.207031 C 80.199219 19.75 80.09375 19.390625 79.886719 19.125 C 79.6875 18.863281 79.410156 18.730469 79.050781 18.730469 C 78.769531 18.730469 78.515625 18.8125 78.28125 18.980469 C 78.058594 19.136719 77.871094 19.371094 77.71875 19.6875 L 77.71875 24.707031 L 78.050781 24.707031 C 78.410156 24.707031 78.65625 24.761719 78.78125 24.855469 C 78.90625 24.9375 78.96875 25.097656 78.96875 25.332031 C 78.96875 25.582031 78.917969 25.761719 78.824219 25.855469 C 78.722656 25.953125 78.53125 26 78.238281 26 L 75.800781 26 C 75.5625 26 75.390625 25.953125 75.28125 25.855469 C 75.167969 25.746094 75.113281 25.574219 75.113281 25.332031 C 75.113281 25.097656 75.183594 24.9375 75.324219 24.855469 C 75.457031 24.761719 75.738281 24.707031 76.15625 24.707031 L 76.34375 24.707031 L 76.34375 18.875 L 76.175781 18.875 C 75.746094 18.875 75.453125 18.828125 75.300781 18.730469 C 75.144531 18.636719 75.074219 18.457031 75.074219 18.207031 C 75.074219 18 75.136719 17.847656 75.261719 17.75 C 75.386719 17.640625 75.5625 17.582031 75.800781 17.582031 L 77.199219 17.582031 C 77.40625 17.582031 77.535156 17.621094 77.59375 17.6875 C 77.660156 17.761719 77.703125 17.90625 77.71875 18.125 C 77.96875 17.863281 78.230469 17.667969 78.511719 17.542969 C 78.800781 17.40625 79.121094 17.332031 79.46875 17.332031 C 79.894531 17.332031 80.25 17.433594 80.53125 17.625 C 80.808594 17.808594 81.015625 18.082031 81.15625 18.457031 C 81.40625 18.082031 81.699219 17.808594 82.03125 17.625 C 82.363281 17.433594 82.746094 17.332031 83.175781 17.332031 C 83.96875 17.332031 84.542969 17.59375 84.90625 18.105469 C 85.265625 18.621094 85.449219 19.449219 85.449219 20.582031 L 85.449219 24.707031 L 85.59375 24.707031 C 85.96875 24.707031 86.21875 24.761719 86.34375 24.855469 C 86.46875 24.9375 86.53125 25.097656 86.53125 25.332031 C 86.53125 25.558594 86.472656 25.722656 86.363281 25.832031 C 86.25 25.949219 86.09375 26 85.886719 26 L 84.78125 26 C 84.542969 26 84.363281 25.933594 84.238281 25.792969 C 84.125 25.640625 84.074219 25.40625 84.074219 25.082031 Z M 84.074219 20.917969 "/>
<path style=" stroke:none;fill-rule:nonzero;fill:rgb(0%,0%,0%);fill-opacity:1;" d="M 88.816406 22.1875 C 88.859375 23.0625 89.148438 23.746094 89.691406 24.230469 C 90.242188 24.703125 90.988281 24.9375 91.921875 24.9375 C 92.640625 24.9375 93.421875 24.75 94.253906 24.375 C 95.085938 23.988281 95.59375 23.792969 95.773438 23.792969 C 95.953125 23.792969 96.109375 23.855469 96.234375 23.980469 C 96.359375 24.09375 96.421875 24.230469 96.421875 24.394531 C 96.421875 24.578125 96.347656 24.746094 96.210938 24.894531 C 96.085938 25.035156 95.882812 25.175781 95.609375 25.3125 C 94.992188 25.605469 94.363281 25.832031 93.710938 26 C 93.070312 26.152344 92.429688 26.230469 91.796875 26.230469 C 90.421875 26.230469 89.316406 25.832031 88.484375 25.042969 C 87.648438 24.238281 87.234375 23.175781 87.234375 21.855469 C 87.234375 20.511719 87.671875 19.417969 88.546875 18.582031 C 89.429688 17.75 90.578125 17.332031 91.984375 17.332031 C 93.273438 17.332031 94.335938 17.722656 95.171875 18.5 C 96.015625 19.28125 96.441406 20.222656 96.441406 21.332031 C 96.441406 21.667969 96.367188 21.894531 96.234375 22.019531 C 96.09375 22.136719 95.703125 22.1875 95.066406 22.1875 Z M 88.859375 21 L 94.796875 21 C 94.695312 20.28125 94.390625 19.699219 93.878906 19.25 C 93.363281 18.808594 92.734375 18.582031 91.984375 18.582031 C 91.175781 18.582031 90.492188 18.800781 89.941406 19.230469 C 89.398438 19.660156 89.035156 20.25 88.859375 21 Z M 88.859375 21 "/>
<path style=" stroke:none;fill-rule:nonzero;fill:rgb(0%,0%,0%);fill-opacity:1;" d="M 117.679688 20.917969 C 117.679688 20.074219 117.601562 19.496094 117.449219 19.1875 C 117.292969 18.886719 117.03125 18.730469 116.65625 18.730469 C 116.199219 18.730469 115.835938 18.925781 115.574219 19.3125 C 115.308594 19.703125 115.179688 20.238281 115.179688 20.917969 L 115.179688 24.707031 L 115.34375 24.707031 C 115.71875 24.707031 115.96875 24.761719 116.09375 24.855469 C 116.21875 24.9375 116.28125 25.097656 116.28125 25.332031 C 116.28125 25.558594 116.226562 25.722656 116.117188 25.832031 C 116.015625 25.949219 115.855469 26 115.636719 26 L 114.492188 26 C 114.226562 26 114.042969 25.9375 113.949219 25.8125 C 113.851562 25.6875 113.804688 25.433594 113.804688 25.042969 L 113.804688 20.207031 C 113.804688 19.75 113.699219 19.390625 113.492188 19.125 C 113.292969 18.863281 113.015625 18.730469 112.65625 18.730469 C 112.375 18.730469 112.121094 18.8125 111.886719 18.980469 C 111.664062 19.136719 111.476562 19.371094 111.324219 19.6875 L 111.324219 24.707031 L 111.65625 24.707031 C 112.015625 24.707031 112.261719 24.761719 112.386719 24.855469 C 112.511719 24.9375 112.574219 25.097656 112.574219 25.332031 C 112.574219 25.582031 112.523438 25.761719 112.429688 25.855469 C 112.328125 25.953125 112.136719 26 111.84375 26 L 109.40625 26 C 109.167969 26 108.996094 25.953125 108.886719 25.855469 C 108.773438 25.746094 108.71875 25.574219 108.71875 25.332031 C 108.71875 25.097656 108.789062 24.9375 108.929688 24.855469 C 109.0625 24.761719 109.34375 24.707031 109.761719 24.707031 L 109.949219 24.707031 L 109.949219 18.875 L 109.78125 18.875 C 109.351562 18.875 109.058594 18.828125 108.90625 18.730469 C 108.75 18.636719 108.679688 18.457031 108.679688 18.207031 C 108.679688 18 108.742188 17.847656 108.867188 17.75 C 108.992188 17.640625 109.167969 17.582031 109.40625 17.582031 L 110.804688 17.582031 C 111.011719 17.582031 111.140625 17.621094 111.199219 17.6875 C 111.265625 17.761719 111.308594 17.90625 111.324219 18.125 C 111.574219 17.863281 111.835938 17.667969 112.117188 17.542969 C 112.40625 17.40625 112.726562 17.332031 113.074219 17.332031 C 113.5 17.332031 113.855469 17.433594 114.136719 17.625 C 114.414062 17.808594 114.621094 18.082031 114.761719 18.457031 C 115.011719 18.082031 115.304688 17.808594 115.636719 17.625 C 115.96875 17.433594 116.351562 17.332031 116.78125 17.332031 C 117.574219 17.332031 118.148438 17.59375 118.511719 18.105469 C 118.871094 18.621094 119.054688 19.449219 119.054688 20.582031 L 119.054688 24.707031 L 119.199219 24.707031 C 119.574219 24.707031 119.824219 24.761719 119.949219 24.855469 C 120.074219 24.9375 120.136719 25.097656 120.136719 25.332031 C 120.136719 25.558594 120.078125 25.722656 119.96875 25.832031 C 119.855469 25.949219 119.699219 26 119.492188 26 L 118.386719 26 C 118.148438 26 117.96875 25.933594 117.84375 25.792969 C 117.730469 25.640625 117.679688 25.40625 117.679688 25.082031 Z M 117.679688 20.917969 "/>
<path style=" stroke:none;fill-rule:nonzero;fill:rgb(0%,0%,0%);fill-opacity:1;" d="M 127.527344 21.980469 C 127.191406 21.871094 126.863281 21.785156 126.546875 21.730469 C 126.238281 21.675781 125.925781 21.644531 125.609375 21.644531 C 124.675781 21.644531 123.941406 21.808594 123.402344 22.125 C 122.859375 22.449219 122.589844 22.871094 122.589844 23.394531 C 122.589844 23.8125 122.753906 24.160156 123.089844 24.4375 C 123.433594 24.703125 123.863281 24.832031 124.378906 24.832031 C 125.15625 24.832031 125.871094 24.636719 126.527344 24.230469 C 127.191406 23.8125 127.527344 23.390625 127.527344 22.957031 Z M 127.589844 24.832031 C 127.089844 25.292969 126.546875 25.640625 125.964844 25.875 C 125.378906 26.109375 124.777344 26.230469 124.152344 26.230469 C 123.246094 26.230469 122.515625 25.980469 121.964844 25.480469 C 121.40625 24.96875 121.128906 24.308594 121.128906 23.5 C 121.128906 22.542969 121.496094 21.800781 122.234375 21.269531 C 122.96875 20.746094 124.011719 20.480469 125.359375 20.480469 C 125.703125 20.480469 126.058594 20.5 126.421875 20.542969 C 126.78125 20.582031 127.152344 20.65625 127.527344 20.75 L 127.527344 20.6875 C 127.527344 19.996094 127.359375 19.480469 127.027344 19.144531 C 126.691406 18.8125 126.171875 18.644531 125.464844 18.644531 C 124.988281 18.644531 124.464844 18.78125 123.878906 19.042969 C 123.296875 19.292969 122.90625 19.417969 122.714844 19.417969 C 122.546875 19.417969 122.402344 19.347656 122.277344 19.207031 C 122.160156 19.058594 122.109375 18.871094 122.109375 18.644531 C 122.109375 18.285156 122.441406 17.980469 123.109375 17.730469 C 123.785156 17.480469 124.652344 17.355469 125.691406 17.355469 C 126.761719 17.355469 127.566406 17.636719 128.109375 18.1875 C 128.660156 18.730469 128.941406 19.53125 128.941406 20.582031 L 128.941406 24.707031 L 129.378906 24.707031 C 129.808594 24.707031 130.09375 24.761719 130.234375 24.855469 C 130.386719 24.9375 130.464844 25.097656 130.464844 25.332031 C 130.464844 25.558594 130.402344 25.722656 130.277344 25.832031 C 130.160156 25.949219 129.984375 26 129.734375 26 L 128.296875 26 C 128.128906 26 127.988281 25.953125 127.878906 25.855469 C 127.765625 25.746094 127.699219 25.59375 127.671875 25.394531 Z M 127.589844 24.832031 "/>
<path style=" stroke:none;fill-rule:nonzero;fill:rgb(0%,0%,0%);fill-opacity:1;" d="M 139.4375 18.125 L 139.4375 18.082031 C 139.4375 17.890625 139.488281 17.746094 139.601562 17.644531 C 139.726562 17.550781 139.90625 17.5 140.144531 17.5 C 140.394531 17.5 140.566406 17.578125 140.664062 17.730469 C 140.757812 17.871094 140.8125 18.167969 140.8125 18.625 L 140.8125 20.3125 C 140.8125 20.550781 140.75 20.722656 140.625 20.832031 C 140.507812 20.949219 140.34375 21 140.125 21 C 139.957031 21 139.8125 20.953125 139.6875 20.855469 C 139.570312 20.761719 139.4375 20.5625 139.269531 20.269531 C 138.976562 19.769531 138.625 19.394531 138.207031 19.144531 C 137.789062 18.894531 137.3125 18.769531 136.769531 18.769531 C 135.8125 18.769531 135.03125 19.058594 134.4375 19.625 C 133.851562 20.183594 133.5625 20.894531 133.5625 21.769531 C 133.5625 22.6875 133.84375 23.433594 134.414062 24 C 134.984375 24.574219 135.710938 24.855469 136.601562 24.855469 C 137.019531 24.855469 137.40625 24.800781 137.769531 24.6875 C 138.144531 24.578125 138.488281 24.410156 138.8125 24.1875 C 138.921875 24.121094 139.070312 24.011719 139.269531 23.855469 C 139.671875 23.535156 139.984375 23.375 140.207031 23.375 C 140.398438 23.375 140.550781 23.4375 140.664062 23.5625 C 140.789062 23.675781 140.851562 23.824219 140.851562 24 C 140.851562 24.488281 140.394531 24.980469 139.476562 25.480469 C 138.570312 25.980469 137.609375 26.230469 136.582031 26.230469 C 135.257812 26.230469 134.164062 25.808594 133.289062 24.957031 C 132.414062 24.113281 131.976562 23.058594 131.976562 21.792969 C 131.976562 20.53125 132.414062 19.472656 133.289062 18.625 C 134.164062 17.78125 135.257812 17.355469 136.582031 17.355469 C 137.039062 17.355469 137.5 17.417969 137.957031 17.542969 C 138.425781 17.667969 138.921875 17.863281 139.4375 18.125 Z M 139.4375 18.125 "/>
<path style=" stroke:none;fill-rule:nonzero;fill:rgb(0%,0%,0%);fill-opacity:1;" d="M 144.472656 24.707031 L 144.472656 15.375 L 144.304688 15.375 C 143.886719 15.375 143.601562 15.328125 143.449219 15.230469 C 143.292969 15.136719 143.222656 14.96875 143.222656 14.730469 C 143.222656 14.511719 143.285156 14.34375 143.410156 14.230469 C 143.535156 14.121094 143.710938 14.0625 143.949219 14.0625 L 145.324219 14.0625 C 145.492188 14.0625 145.617188 14.097656 145.699219 14.167969 C 145.792969 14.238281 145.847656 14.328125 145.847656 14.4375 L 145.847656 18.5625 C 146.289062 18.160156 146.726562 17.863281 147.160156 17.667969 C 147.601562 17.457031 148.054688 17.355469 148.511719 17.355469 C 149.429688 17.355469 150.148438 17.640625 150.679688 18.207031 C 151.207031 18.78125 151.472656 19.574219 151.472656 20.582031 L 151.472656 24.707031 L 151.910156 24.707031 C 152.210938 24.707031 152.429688 24.765625 152.554688 24.875 C 152.691406 24.972656 152.761719 25.125 152.761719 25.332031 C 152.761719 25.558594 152.699219 25.722656 152.574219 25.832031 C 152.449219 25.949219 152.269531 26 152.035156 26 L 149.597656 26 C 149.316406 26 149.121094 25.953125 149.011719 25.855469 C 148.914062 25.761719 148.867188 25.582031 148.867188 25.332031 C 148.867188 25.097656 148.929688 24.9375 149.054688 24.855469 C 149.179688 24.761719 149.414062 24.707031 149.761719 24.707031 L 150.097656 24.707031 L 150.097656 20.917969 C 150.097656 20.207031 149.929688 19.667969 149.597656 19.292969 C 149.273438 18.917969 148.808594 18.730469 148.199219 18.730469 C 147.574219 18.730469 147.023438 18.949219 146.554688 19.375 C 146.082031 19.792969 145.847656 20.308594 145.847656 20.917969 L 145.847656 24.707031 L 146.179688 24.707031 C 146.539062 24.707031 146.785156 24.761719 146.910156 24.855469 C 147.035156 24.9375 147.097656 25.097656 147.097656 25.332031 C 147.097656 25.582031 147.042969 25.761719 146.949219 25.855469 C 146.851562 25.953125 146.660156 26 146.367188 26 L 143.949219 26 C 143.710938 26 143.535156 25.949219 143.410156 25.832031 C 143.292969 25.722656 143.242188 25.558594 143.242188 25.332031 C 143.242188 25.097656 143.308594 24.9375 143.449219 24.855469 C 143.585938 24.761719 143.867188 24.707031 144.285156 24.707031 Z M 144.472656 24.707031 "/>
<path style=" stroke:none;fill-rule:nonzero;fill:rgb(0%,0%,0%);fill-opacity:1;" d="M 158.257812 14.957031 C 158.257812 14.292969 158.308594 13.875 158.421875 13.707031 C 158.546875 13.542969 158.804688 13.457031 159.195312 13.457031 C 159.578125 13.457031 159.828125 13.535156 159.945312 13.6875 C 160.070312 13.828125 160.132812 14.160156 160.132812 14.6875 C 160.132812 15.21875 160.074219 15.542969 159.964844 15.667969 C 159.851562 15.792969 159.59375 15.855469 159.195312 15.855469 C 158.804688 15.855469 158.546875 15.800781 158.421875 15.6875 C 158.308594 15.5625 158.257812 15.324219 158.257812 14.957031 Z M 159.945312 24.707031 L 162.882812 24.707031 C 163.117188 24.707031 163.289062 24.765625 163.402344 24.875 C 163.511719 24.972656 163.570312 25.125 163.570312 25.332031 C 163.570312 25.582031 163.511719 25.761719 163.402344 25.855469 C 163.304688 25.953125 163.109375 26 162.820312 26 L 155.757812 26 C 155.507812 26 155.320312 25.949219 155.195312 25.832031 C 155.078125 25.722656 155.027344 25.558594 155.027344 25.332031 C 155.027344 25.125 155.089844 24.972656 155.214844 24.875 C 155.339844 24.765625 155.527344 24.707031 155.777344 24.707031 L 158.570312 24.707031 L 158.570312 18.875 L 156.796875 18.875 C 156.546875 18.875 156.351562 18.824219 156.214844 18.707031 C 156.089844 18.597656 156.027344 18.433594 156.027344 18.207031 C 156.027344 18 156.078125 17.847656 156.195312 17.75 C 156.320312 17.640625 156.507812 17.582031 156.757812 17.582031 L 159.421875 17.582031 C 159.589844 17.582031 159.714844 17.621094 159.796875 17.6875 C 159.890625 17.746094 159.945312 17.832031 159.945312 17.957031 Z M 159.945312 24.707031 "/>
<path style=" stroke:none;fill-rule:nonzero;fill:rgb(0%,0%,0%);fill-opacity:1;" d="M 166.917969 24.707031 L 166.917969 18.875 L 166.75 18.875 C 166.332031 18.875 166.046875 18.828125 165.894531 18.730469 C 165.738281 18.636719 165.667969 18.457031 165.667969 18.207031 C 165.667969 17.988281 165.730469 17.828125 165.855469 17.730469 C 165.980469 17.636719 166.175781 17.582031 166.457031 17.582031 L 167.769531 17.582031 C 167.9375 17.582031 168.0625 17.621094 168.144531 17.6875 C 168.238281 17.746094 168.292969 17.832031 168.292969 17.957031 L 168.292969 18.5625 C 168.734375 18.160156 169.171875 17.863281 169.605469 17.667969 C 170.03125 17.457031 170.484375 17.355469 170.957031 17.355469 C 171.875 17.355469 172.59375 17.640625 173.125 18.207031 C 173.652344 18.78125 173.917969 19.574219 173.917969 20.582031 L 173.917969 24.707031 L 174.332031 24.707031 C 174.636719 24.707031 174.859375 24.765625 175 24.875 C 175.136719 24.972656 175.207031 25.125 175.207031 25.332031 C 175.207031 25.582031 175.128906 25.761719 174.980469 25.855469 C 174.839844 25.953125 174.589844 26 174.230469 26 L 172.207031 26 C 171.816406 26 171.566406 25.957031 171.457031 25.875 C 171.34375 25.78125 171.292969 25.597656 171.292969 25.332031 C 171.292969 25.097656 171.355469 24.9375 171.480469 24.855469 C 171.613281 24.761719 171.859375 24.707031 172.207031 24.707031 L 172.519531 24.707031 L 172.519531 20.917969 C 172.519531 20.207031 172.359375 19.667969 172.042969 19.292969 C 171.71875 18.917969 171.253906 18.730469 170.644531 18.730469 C 170.019531 18.730469 169.46875 18.949219 169 19.375 C 168.527344 19.792969 168.292969 20.308594 168.292969 20.917969 L 168.292969 24.707031 L 168.605469 24.707031 C 168.980469 24.707031 169.230469 24.761719 169.355469 24.855469 C 169.480469 24.9375 169.542969 25.097656 169.542969 25.332031 C 169.542969 25.597656 169.484375 25.78125 169.375 25.875 C 169.261719 25.957031 169 26 168.582031 26 L 166.417969 26 C 166.167969 26 165.980469 25.953125 165.855469 25.855469 C 165.730469 25.746094 165.667969 25.574219 165.667969 25.332031 C 165.667969 25.097656 165.734375 24.9375 165.875 24.855469 C 166.027344 24.761719 166.3125 24.707031 166.730469 24.707031 Z M 166.917969 24.707031 "/>
<path style=" stroke:none;fill-rule:nonzero;fill:rgb(0%,0%,0%);fill-opacity:1;" d="M 178.429688 22.1875 C 178.472656 23.0625 178.765625 23.746094 179.304688 24.230469 C 179.859375 24.703125 180.601562 24.9375 181.535156 24.9375 C 182.253906 24.9375 183.035156 24.75 183.867188 24.375 C 184.703125 23.988281 185.207031 23.792969 185.390625 23.792969 C 185.566406 23.792969 185.722656 23.855469 185.847656 23.980469 C 185.972656 24.09375 186.035156 24.230469 186.035156 24.394531 C 186.035156 24.578125 185.960938 24.746094 185.828125 24.894531 C 185.703125 25.035156 185.5 25.175781 185.222656 25.3125 C 184.609375 25.605469 183.976562 25.832031 183.328125 26 C 182.6875 26.152344 182.046875 26.230469 181.410156 26.230469 C 180.035156 26.230469 178.929688 25.832031 178.097656 25.042969 C 177.265625 24.238281 176.847656 23.175781 176.847656 21.855469 C 176.847656 20.511719 177.285156 19.417969 178.160156 18.582031 C 179.046875 17.75 180.191406 17.332031 181.597656 17.332031 C 182.890625 17.332031 183.953125 17.722656 184.785156 18.5 C 185.628906 19.28125 186.054688 20.222656 186.054688 21.332031 C 186.054688 21.667969 185.984375 21.894531 185.847656 22.019531 C 185.707031 22.136719 185.316406 22.1875 184.679688 22.1875 Z M 178.472656 21 L 184.410156 21 C 184.3125 20.28125 184.003906 19.699219 183.492188 19.25 C 182.976562 18.808594 182.347656 18.582031 181.597656 18.582031 C 180.789062 18.582031 180.109375 18.800781 179.554688 19.230469 C 179.015625 19.660156 178.648438 20.25 178.472656 21 Z M 178.472656 21 "/>
<path style=" stroke:none;fill-rule:nonzero;fill:rgb(0%,0%,0%);fill-opacity:1;" d="M 204.398438 24.730469 C 205.257812 24.730469 205.949219 24.457031 206.480469 23.917969 C 207.023438 23.375 207.292969 22.675781 207.292969 21.8125 C 207.292969 20.96875 207.023438 20.269531 206.480469 19.730469 C 205.9375 19.1875 205.242188 18.917969 204.398438 18.917969 C 203.546875 18.917969 202.855469 19.1875 202.3125 19.730469 C 201.78125 20.269531 201.523438 20.96875 201.523438 21.8125 C 201.523438 22.660156 201.78125 23.363281 202.3125 23.917969 C 202.855469 24.457031 203.546875 24.730469 204.398438 24.730469 Z M 201.5625 18.894531 C 201.898438 18.46875 202.320312 18.140625 202.835938 17.917969 C 203.34375 17.699219 203.921875 17.582031 204.5625 17.582031 C 205.78125 17.582031 206.796875 17.996094 207.605469 18.8125 C 208.421875 19.636719 208.835938 20.65625 208.835938 21.875 C 208.835938 23.074219 208.417969 24.082031 207.585938 24.917969 C 206.75 25.75 205.730469 26.167969 204.523438 26.167969 C 203.882812 26.167969 203.324219 26.050781 202.855469 25.832031 C 202.382812 25.597656 201.992188 25.261719 201.6875 24.8125 L 201.6875 25.542969 C 201.6875 25.699219 201.65625 25.8125 201.605469 25.894531 C 201.546875 25.96875 201.449219 26 201.3125 26 L 199.648438 26 C 199.40625 26 199.234375 25.949219 199.125 25.832031 C 199.011719 25.722656 198.960938 25.558594 198.960938 25.332031 C 198.960938 25.097656 199.027344 24.9375 199.167969 24.855469 C 199.304688 24.761719 199.585938 24.707031 200 24.707031 L 200.1875 24.707031 L 200.1875 15.375 L 200 15.375 C 199.59375 15.375 199.320312 15.328125 199.167969 15.230469 C 199.011719 15.136719 198.9375 14.96875 198.9375 14.730469 C 198.9375 14.511719 198.992188 14.34375 199.105469 14.230469 C 199.230469 14.121094 199.40625 14.0625 199.648438 14.0625 L 201.042969 14.0625 C 201.21875 14.0625 201.355469 14.097656 201.4375 14.167969 C 201.523438 14.222656 201.5625 14.3125 201.5625 14.4375 Z M 201.5625 18.894531 "/>
<path style=" stroke:none;fill-rule:nonzero;fill:rgb(0%,0%,0%);fill-opacity:1;" d="M 214.433594 28.332031 L 214.828125 28.332031 C 215.269531 28.332031 215.566406 28.378906 215.722656 28.480469 C 215.875 28.574219 215.953125 28.75 215.953125 29 C 215.953125 29.207031 215.890625 29.363281 215.765625 29.480469 C 215.640625 29.589844 215.457031 29.644531 215.222656 29.644531 L 211.035156 29.644531 C 210.746094 29.644531 210.542969 29.59375 210.433594 29.5 C 210.316406 29.402344 210.265625 29.234375 210.265625 29 C 210.265625 28.777344 210.316406 28.609375 210.433594 28.5 C 210.558594 28.386719 210.734375 28.332031 210.972656 28.332031 L 212.953125 28.332031 L 214.433594 25.417969 L 211.078125 18.875 C 210.671875 18.875 210.394531 18.828125 210.246094 18.730469 C 210.105469 18.636719 210.035156 18.457031 210.035156 18.207031 C 210.035156 18 210.089844 17.847656 210.203125 17.75 C 210.328125 17.640625 210.515625 17.582031 210.765625 17.582031 L 213.308594 17.582031 C 213.652344 17.582031 213.878906 17.636719 213.996094 17.730469 C 214.105469 17.8125 214.160156 17.972656 214.160156 18.207031 C 214.160156 18.457031 214.082031 18.636719 213.933594 18.730469 C 213.777344 18.828125 213.5 18.875 213.097656 18.875 L 212.765625 18.875 L 215.222656 23.894531 L 217.746094 18.875 L 217.390625 18.875 C 216.972656 18.875 216.683594 18.828125 216.515625 18.730469 C 216.359375 18.636719 216.285156 18.457031 216.285156 18.207031 C 216.285156 17.972656 216.339844 17.8125 216.453125 17.730469 C 216.578125 17.636719 216.8125 17.582031 217.160156 17.582031 L 219.410156 17.582031 C 219.660156 17.582031 219.839844 17.640625 219.953125 17.75 C 220.078125 17.847656 220.140625 18 220.140625 18.207031 C 220.140625 18.449219 220.066406 18.613281 219.933594 18.707031 C 219.792969 18.808594 219.558594 18.863281 219.222656 18.875 Z M 214.433594 28.332031 "/>
<path style=" stroke:none;fill-rule:nonzero;fill:rgb(0%,0%,0%);fill-opacity:1;" d="M 234.085938 24.707031 L 234.085938 15.375 L 233.917969 15.375 C 233.503906 15.375 233.214844 15.328125 233.066406 15.230469 C 232.910156 15.136719 232.835938 14.96875 232.835938 14.730469 C 232.835938 14.511719 232.898438 14.34375 233.023438 14.230469 C 233.148438 14.121094 233.324219 14.0625 233.566406 14.0625 L 234.941406 14.0625 C 235.105469 14.0625 235.230469 14.097656 235.316406 14.167969 C 235.410156 14.238281 235.460938 14.328125 235.460938 14.4375 L 235.460938 18.5625 C 235.902344 18.160156 236.339844 17.863281 236.773438 17.667969 C 237.214844 17.457031 237.667969 17.355469 238.128906 17.355469 C 239.042969 17.355469 239.761719 17.640625 240.292969 18.207031 C 240.820312 18.78125 241.085938 19.574219 241.085938 20.582031 L 241.085938 24.707031 L 241.523438 24.707031 C 241.824219 24.707031 242.042969 24.765625 242.167969 24.875 C 242.304688 24.972656 242.378906 25.125 242.378906 25.332031 C 242.378906 25.558594 242.316406 25.722656 242.191406 25.832031 C 242.066406 25.949219 241.882812 26 241.648438 26 L 239.210938 26 C 238.929688 26 238.738281 25.953125 238.628906 25.855469 C 238.527344 25.761719 238.480469 25.582031 238.480469 25.332031 C 238.480469 25.097656 238.542969 24.9375 238.667969 24.855469 C 238.792969 24.761719 239.027344 24.707031 239.378906 24.707031 L 239.710938 24.707031 L 239.710938 20.917969 C 239.710938 20.207031 239.542969 19.667969 239.210938 19.292969 C 238.886719 18.917969 238.425781 18.730469 237.816406 18.730469 C 237.191406 18.730469 236.636719 18.949219 236.167969 19.375 C 235.695312 19.792969 235.460938 20.308594 235.460938 20.917969 L 235.460938 24.707031 L 235.792969 24.707031 C 236.152344 24.707031 236.398438 24.761719 236.523438 24.855469 C 236.648438 24.9375 236.710938 25.097656 236.710938 25.332031 C 236.710938 25.582031 236.660156 25.761719 236.566406 25.855469 C 236.464844 25.953125 236.273438 26 235.980469 26 L 233.566406 26 C 233.324219 26 233.148438 25.949219 233.023438 25.832031 C 232.910156 25.722656 232.855469 25.558594 232.855469 25.332031 C 232.855469 25.097656 232.925781 24.9375 233.066406 24.855469 C 233.199219 24.761719 233.480469 24.707031 233.898438 24.707031 Z M 234.085938 24.707031 "/>
<path style=" stroke:none;fill-rule:nonzero;fill:rgb(0%,0%,0%);fill-opacity:1;" d="M 259.65625 18.917969 C 258.867188 18.917969 258.210938 19.167969 257.699219 19.667969 C 257.199219 20.15625 256.949219 20.792969 256.949219 21.582031 C 256.949219 22.347656 257.199219 22.980469 257.699219 23.480469 C 258.210938 23.980469 258.867188 24.230469 259.65625 24.230469 C 260.449219 24.230469 261.09375 23.980469 261.59375 23.480469 C 262.105469 22.980469 262.367188 22.347656 262.367188 21.582031 C 262.367188 20.808594 262.105469 20.167969 261.59375 19.667969 C 261.09375 19.167969 260.449219 18.917969 259.65625 18.917969 Z M 263.617188 25.519531 C 263.617188 26.363281 263.574219 26.964844 263.492188 27.3125 C 263.40625 27.671875 263.261719 27.988281 263.054688 28.269531 C 262.71875 28.714844 262.242188 29.050781 261.617188 29.292969 C 261 29.527344 260.28125 29.644531 259.449219 29.644531 C 258.75 29.644531 258.246094 29.574219 257.929688 29.4375 C 257.621094 29.296875 257.46875 29.082031 257.46875 28.792969 C 257.46875 28.609375 257.542969 28.441406 257.699219 28.292969 C 257.851562 28.152344 258.03125 28.082031 258.242188 28.082031 C 258.40625 28.082031 258.65625 28.105469 258.992188 28.144531 C 259.335938 28.199219 259.601562 28.230469 259.78125 28.230469 C 260.667969 28.230469 261.304688 28.019531 261.679688 27.605469 C 262.0625 27.1875 262.261719 26.480469 262.261719 25.480469 L 262.261719 24.375 C 261.886719 24.808594 261.46875 25.125 261.011719 25.332031 C 260.5625 25.53125 260.054688 25.625 259.46875 25.625 C 258.328125 25.625 257.386719 25.25 256.636719 24.5 C 255.898438 23.738281 255.53125 22.78125 255.53125 21.625 C 255.53125 20.457031 255.914062 19.496094 256.679688 18.730469 C 257.4375 17.953125 258.390625 17.5625 259.53125 17.5625 C 260 17.5625 260.460938 17.65625 260.90625 17.832031 C 261.351562 18 261.804688 18.261719 262.261719 18.605469 L 262.261719 17.957031 C 262.261719 17.824219 262.292969 17.722656 262.367188 17.667969 C 262.449219 17.613281 262.578125 17.582031 262.761719 17.582031 L 264.136719 17.582031 C 264.386719 17.582031 264.5625 17.640625 264.679688 17.75 C 264.804688 17.847656 264.867188 18 264.867188 18.207031 C 264.867188 18.457031 264.789062 18.636719 264.636719 18.730469 C 264.480469 18.828125 264.199219 18.875 263.78125 18.875 L 263.617188 18.875 Z M 263.617188 25.519531 "/>
<path style=" stroke:none;fill-rule:nonzero;fill:rgb(0%,0%,0%);fill-opacity:1;" d="M 282.269531 21.375 L 281.101562 25.707031 C 281.03125 25.933594 280.9375 26.082031 280.8125 26.167969 C 280.695312 26.261719 280.519531 26.3125 280.269531 26.3125 C 280.046875 26.3125 279.875 26.253906 279.75 26.144531 C 279.632812 26.03125 279.53125 25.828125 279.4375 25.519531 L 277.351562 18.875 L 277.269531 18.875 C 277.003906 18.875 276.816406 18.828125 276.707031 18.730469 C 276.597656 18.621094 276.539062 18.449219 276.539062 18.207031 C 276.539062 18 276.601562 17.847656 276.726562 17.75 C 276.835938 17.640625 277.007812 17.582031 277.25 17.582031 L 279.6875 17.582031 C 280.003906 17.582031 280.21875 17.636719 280.332031 17.730469 C 280.457031 17.8125 280.519531 17.972656 280.519531 18.207031 C 280.519531 18.363281 280.484375 18.496094 280.414062 18.605469 C 280.34375 18.703125 280.257812 18.765625 280.164062 18.792969 C 280.066406 18.824219 279.945312 18.84375 279.8125 18.855469 C 279.671875 18.871094 279.503906 18.875 279.3125 18.875 L 278.769531 18.875 L 280.351562 24.332031 L 281.519531 20.375 C 281.585938 20.140625 281.675781 19.980469 281.789062 19.894531 C 281.914062 19.800781 282.101562 19.75 282.351562 19.75 C 282.5625 19.75 282.726562 19.8125 282.851562 19.9375 C 282.976562 20.050781 283.085938 20.25 283.1875 20.542969 L 284.332031 24.332031 L 285.832031 18.875 L 285.226562 18.875 C 284.8125 18.875 284.523438 18.828125 284.375 18.730469 C 284.234375 18.636719 284.164062 18.457031 284.164062 18.207031 C 284.164062 17.972656 284.210938 17.8125 284.3125 17.730469 C 284.421875 17.636719 284.632812 17.582031 284.957031 17.582031 L 287.394531 17.582031 C 287.585938 17.582031 287.726562 17.640625 287.8125 17.75 C 287.90625 17.847656 287.957031 18 287.957031 18.207031 C 287.957031 18.449219 287.898438 18.613281 287.789062 18.707031 C 287.691406 18.808594 287.488281 18.863281 287.1875 18.875 L 285.125 25.707031 C 285.050781 25.933594 284.957031 26.082031 284.832031 26.167969 C 284.71875 26.261719 284.546875 26.3125 284.3125 26.3125 C 284.085938 26.3125 283.90625 26.25 283.769531 26.125 C 283.644531 26.011719 283.539062 25.8125 283.457031 25.519531 Z M 282.269531 21.375 "/>
<path style=" stroke:none;fill-rule:nonzero;fill:rgb(0%,0%,0%);fill-opacity:1;" d="M 290.449219 22.1875 C 290.492188 23.0625 290.785156 23.746094 291.324219 24.230469 C 291.878906 24.703125 292.621094 24.9375 293.554688 24.9375 C 294.273438 24.9375 295.054688 24.75 295.886719 24.375 C 296.722656 23.988281 297.226562 23.792969 297.410156 23.792969 C 297.585938 23.792969 297.742188 23.855469 297.867188 23.980469 C 297.992188 24.09375 298.054688 24.230469 298.054688 24.394531 C 298.054688 24.578125 297.980469 24.746094 297.847656 24.894531 C 297.722656 25.035156 297.519531 25.175781 297.242188 25.3125 C 296.628906 25.605469 295.996094 25.832031 295.347656 26 C 294.707031 26.152344 294.066406 26.230469 293.429688 26.230469 C 292.054688 26.230469 290.949219 25.832031 290.117188 25.042969 C 289.285156 24.238281 288.867188 23.175781 288.867188 21.855469 C 288.867188 20.511719 289.304688 19.417969 290.179688 18.582031 C 291.066406 17.75 292.210938 17.332031 293.617188 17.332031 C 294.910156 17.332031 295.972656 17.722656 296.804688 18.5 C 297.648438 19.28125 298.074219 20.222656 298.074219 21.332031 C 298.074219 21.667969 298.003906 21.894531 297.867188 22.019531 C 297.726562 22.136719 297.335938 22.1875 296.699219 22.1875 Z M 290.492188 21 L 296.429688 21 C 296.332031 20.28125 296.023438 19.699219 295.511719 19.25 C 294.996094 18.808594 294.367188 18.582031 293.617188 18.582031 C 292.808594 18.582031 292.128906 18.800781 291.574219 19.230469 C 291.035156 19.660156 290.667969 20.25 290.492188 21 Z M 290.492188 21 "/>
<path style=" stroke:none;fill-rule:nonzero;fill:rgb(0%,0%,0%);fill-opacity:1;" d="M 304.109375 15.375 L 302.570312 15.375 C 301.984375 15.375 301.617188 15.332031 301.464844 15.25 C 301.308594 15.15625 301.234375 14.980469 301.234375 14.730469 C 301.234375 14.511719 301.296875 14.34375 301.421875 14.230469 C 301.546875 14.121094 301.726562 14.0625 301.964844 14.0625 L 304.964844 14.0625 C 305.132812 14.0625 305.257812 14.097656 305.339844 14.167969 C 305.433594 14.238281 305.484375 14.328125 305.484375 14.4375 L 305.484375 24.707031 L 308.359375 24.707031 C 308.578125 24.707031 308.746094 24.765625 308.859375 24.875 C 308.96875 24.972656 309.027344 25.125 309.027344 25.332031 C 309.027344 25.582031 308.96875 25.761719 308.859375 25.855469 C 308.761719 25.953125 308.570312 26 308.277344 26 L 301.546875 26 C 301.308594 26 301.132812 25.949219 301.007812 25.832031 C 300.882812 25.722656 300.820312 25.558594 300.820312 25.332031 C 300.820312 25.125 300.882812 24.972656 301.007812 24.875 C 301.140625 24.765625 301.339844 24.707031 301.589844 24.707031 L 304.109375 24.707031 Z M 304.109375 15.375 "/>
<path style=" stroke:none;fill-rule:nonzero;fill:rgb(0%,0%,0%);fill-opacity:1;" d="M 315.3125 15.375 L 313.769531 15.375 C 313.1875 15.375 312.816406 15.332031 312.667969 15.25 C 312.511719 15.15625 312.4375 14.980469 312.4375 14.730469 C 312.4375 14.511719 312.5 14.34375 312.625 14.230469 C 312.75 14.121094 312.925781 14.0625 313.167969 14.0625 L 316.167969 14.0625 C 316.332031 14.0625 316.457031 14.097656 316.542969 14.167969 C 316.636719 14.238281 316.6875 14.328125 316.6875 14.4375 L 316.6875 24.707031 L 319.5625 24.707031 C 319.78125 24.707031 319.949219 24.765625 320.0625 24.875 C 320.171875 24.972656 320.230469 25.125 320.230469 25.332031 C 320.230469 25.582031 320.171875 25.761719 320.0625 25.855469 C 319.964844 25.953125 319.769531 26 319.480469 26 L 312.75 26 C 312.511719 26 312.332031 25.949219 312.207031 25.832031 C 312.082031 25.722656 312.019531 25.558594 312.019531 25.332031 C 312.019531 25.125 312.082031 24.972656 312.207031 24.875 C 312.34375 24.765625 312.542969 24.707031 312.792969 24.707031 L 315.3125 24.707031 Z M 315.3125 15.375 "/>
<path style="fill:none;stroke-width:1;stroke-linecap:round;stroke-linejoin:miter;stroke:rgb(0%,0%,0%);stroke-opacity:1;stroke-miterlimit:10;" d="M -101.217773 208.352539 L 127.101562 208.352539 " transform="matrix(1.333333,0,0,1.333333,144,-174.666667)"/>
<path style="fill-rule:nonzero;fill:rgb(0%,0%,0%);fill-opacity:1;stroke-width:1;stroke-linecap:butt;stroke-linejoin:miter;stroke:rgb(0%,0%,0%);stroke-opacity:1;stroke-miterlimit:10;" d="M 131.100586 208.352539 L 127.101562 206.852539 L 127.101562 209.852539 Z M 131.100586 208.352539 " transform="matrix(1.333333,0,0,1.333333,144,-174.666667)"/>
<path style="fill:none;stroke-width:1;stroke-linecap:round;stroke-linejoin:miter;stroke:rgb(0%,0%,0%);stroke-opacity:1;stroke-miterlimit:10;" d="M -101.217773 171.573242 L -81.899414 171.573242 " transform="matrix(1.333333,0,0,1.333333,144,-174.666667)"/>
<path style="fill-rule:nonzero;fill:rgb(0%,0%,0%);fill-opacity:1;stroke-width:1;stroke-linecap:butt;stroke-linejoin:miter;stroke:rgb(0%,0%,0%);stroke-opacity:1;stroke-miterlimit:10;" d="M -77.897461 171.573242 L -81.899414 170.073242 L -81.899414 173.073242 Z M -77.897461 171.573242 " transform="matrix(1.333333,0,0,1.333333,144,-174.666667)"/>
<path style="fill:none;stroke-width:1;stroke-linecap:round;stroke-linejoin:miter;stroke:rgb(0%,0%,0%);stroke-opacity:1;stroke-miterlimit:10;" d="M -75.999023 171.5 L -41.118164 171.561523 " transform="matrix(1.333333,0,0,1.333333,144,-174.666667)"/>
<path style="fill-rule:nonzero;fill:rgb(0%,0%,0%);fill-opacity:1;stroke-width:1;stroke-linecap:butt;stroke-linejoin:miter;stroke:rgb(0%,0%,0%);stroke-opacity:1;stroke-miterlimit:10;" d="M -37.116211 171.570312 L -41.118164 170.061523 L -41.121094 173.061523 Z M -37.116211 171.570312 " transform="matrix(1.333333,0,0,1.333333,144,-174.666667)"/>
<path style="fill:none;stroke-width:1;stroke-linecap:round;stroke-linejoin:miter;stroke:rgb(0%,0%,0%);stroke-opacity:1;stroke-miterlimit:10;" d="M -34.6875 171.573242 L -22.397461 171.573242 " transform="matrix(1.333333,0,0,1.333333,144,-174.666667)"/>
<path style="fill-rule:nonzero;fill:rgb(0%,0%,0%);fill-opacity:1;stroke-width:1;stroke-linecap:butt;stroke-linejoin:miter;stroke:rgb(0%,0%,0%);stroke-opacity:1;stroke-miterlimit:10;" d="M -18.398438 171.573242 L -22.397461 170.073242 L -22.397461 173.073242 Z M -18.398438 171.573242 " transform="matrix(1.333333,0,0,1.333333,144,-174.666667)"/>
<path style="fill:none;stroke-width:1;stroke-linecap:round;stroke-linejoin:miter;stroke:rgb(0%,0%,0%);stroke-opacity:1;stroke-miterlimit:10;" d="M -16.5 171.5 L 33.723633 171.5 " transform="matrix(1.333333,0,0,1.333333,144,-174.666667)"/>
<path style="fill-rule:nonzero;fill:rgb(0%,0%,0%);fill-opacity:1;stroke-width:1;stroke-linecap:butt;stroke-linejoin:miter;stroke:rgb(0%,0%,0%);stroke-opacity:1;stroke-miterlimit:10;" d="M 37.722656 171.5 L 33.723633 170 L 33.723633 173 Z M 37.722656 171.5 " transform="matrix(1.333333,0,0,1.333333,144,-174.666667)"/>
<path style="fill:none;stroke-width:1;stroke-linecap:round;stroke-linejoin:miter;stroke:rgb(0%,0%,0%);stroke-opacity:1;stroke-miterlimit:10;" d="M 39.624023 171.5 L 51.911133 171.5 " transform="matrix(1.333333,0,0,1.333333,144,-174.666667)"/>
<path style="fill-rule:nonzero;fill:rgb(0%,0%,0%);fill-opacity:1;stroke-width:1;stroke-linecap:butt;stroke-linejoin:miter;stroke:rgb(0%,0%,0%);stroke-opacity:1;stroke-miterlimit:10;" d="M 55.910156 171.5 L 51.911133 170 L 51.911133 173 Z M 55.910156 171.5 " transform="matrix(1.333333,0,0,1.333333,144,-174.666667)"/>
<path style="fill:none;stroke-width:1;stroke-linecap:round;stroke-linejoin:miter;stroke:rgb(0%,0%,0%);stroke-opacity:1;stroke-miterlimit:10;" d="M 57.811523 171.573242 L 84.911133 171.573242 " transform="matrix(1.333333,0,0,1.333333,144,-174.666667)"/>
<path style="fill-rule:nonzero;fill:rgb(0%,0%,0%);fill-opacity:1;stroke-width:1;stroke-linecap:butt;stroke-linejoin:miter;stroke:rgb(0%,0%,0%);stroke-opacity:1;stroke-miterlimit:10;" d="M 88.910156 171.573242 L 84.911133 170.073242 L 84.911133 173.073242 Z M 88.910156 171.573242 " transform="matrix(1.333333,0,0,1.333333,144,-174.666667)"/>
<path style="fill:none;stroke-width:1;stroke-linecap:round;stroke-linejoin:miter;stroke:rgb(0%,0%,0%);stroke-opacity:1;stroke-miterlimit:10;" d="M 90.811523 171.573242 L 117.911133 171.573242 " transform="matrix(1.333333,0,0,1.333333,144,-174.666667)"/>
<path style="fill-rule:nonzero;fill:rgb(0%,0%,0%);fill-opacity:1;stroke-width:1;stroke-linecap:butt;stroke-linejoin:miter;stroke:rgb(0%,0%,0%);stroke-opacity:1;stroke-miterlimit:10;" d="M 121.910156 171.573242 L 117.911133 170.073242 L 117.911133 173.073242 Z M 121.910156 171.573242 " transform="matrix(1.333333,0,0,1.333333,144,-174.666667)"/>
<path style="fill:none;stroke-width:1;stroke-linecap:round;stroke-linejoin:miter;stroke:rgb(0%,0%,0%);stroke-opacity:1;stroke-miterlimit:10;" d="M -101.217773 189.924805 L -74.118164 189.924805 " transform="matrix(1.333333,0,0,1.333333,144,-174.666667)"/>
<path style="fill-rule:nonzero;fill:rgb(0%,0%,0%);fill-opacity:1;stroke-width:1;stroke-linecap:butt;stroke-linejoin:miter;stroke:rgb(0%,0%,0%);stroke-opacity:1;stroke-miterlimit:10;" d="M -70.116211 189.924805 L -74.118164 188.424805 L -74.118164 191.424805 Z M -70.116211 189.924805 " transform="matrix(1.333333,0,0,1.333333,144,-174.666667)"/>
<path style="fill:none;stroke-width:1;stroke-linecap:round;stroke-linejoin:miter;stroke:rgb(0%,0%,0%);stroke-opacity:1;stroke-miterlimit:10;" d="M -68.217773 189.924805 L -41.118164 189.924805 " transform="matrix(1.333333,0,0,1.333333,144,-174.666667)"/>
<path style="fill-rule:nonzero;fill:rgb(0%,0%,0%);fill-opacity:1;stroke-width:1;stroke-linecap:butt;stroke-linejoin:miter;stroke:rgb(0%,0%,0%);stroke-opacity:1;stroke-miterlimit:10;" d="M -37.116211 189.924805 L -41.118164 188.424805 L -41.118164 191.424805 Z M -37.116211 189.924805 " transform="matrix(1.333333,0,0,1.333333,144,-174.666667)"/>
<path style="fill:none;stroke-width:1;stroke-linecap:round;stroke-linejoin:miter;stroke:rgb(0%,0%,0%);stroke-opacity:1;stroke-miterlimit:10;" d="M -34.6875 189.924805 L -7.59082 189.924805 " transform="matrix(1.333333,0,0,1.333333,144,-174.666667)"/>
<path style="fill-rule:nonzero;fill:rgb(0%,0%,0%);fill-opacity:1;stroke-width:1;stroke-linecap:butt;stroke-linejoin:miter;stroke:rgb(0%,0%,0%);stroke-opacity:1;stroke-miterlimit:10;" d="M -3.588867 189.924805 L -7.59082 188.424805 L -7.59082 191.424805 Z M -3.588867 189.924805 " transform="matrix(1.333333,0,0,1.333333,144,-174.666667)"/>
<path style="fill:none;stroke-width:1;stroke-linecap:round;stroke-linejoin:miter;stroke:rgb(0%,0%,0%);stroke-opacity:1;stroke-miterlimit:10;" d="M -1.6875 189.924805 L 25.40918 189.924805 " transform="matrix(1.333333,0,0,1.333333,144,-174.666667)"/>
<path style="fill-rule:nonzero;fill:rgb(0%,0%,0%);fill-opacity:1;stroke-width:1;stroke-linecap:butt;stroke-linejoin:miter;stroke:rgb(0%,0%,0%);stroke-opacity:1;stroke-miterlimit:10;" d="M 29.411133 189.924805 L 25.40918 188.424805 L 25.40918 191.424805 Z M 29.411133 189.924805 " transform="matrix(1.333333,0,0,1.333333,144,-174.666667)"/>
<path style="fill:none;stroke-width:1;stroke-linecap:round;stroke-linejoin:miter;stroke:rgb(0%,0%,0%);stroke-opacity:1;stroke-miterlimit:10;" d="M 31.842773 189.924805 L 58.942383 189.924805 " transform="matrix(1.333333,0,0,1.333333,144,-174.666667)"/>
<path style="fill-rule:nonzero;fill:rgb(0%,0%,0%);fill-opacity:1;stroke-width:1;stroke-linecap:butt;stroke-linejoin:miter;stroke:rgb(0%,0%,0%);stroke-opacity:1;stroke-miterlimit:10;" d="M 62.941406 189.924805 L 58.942383 188.424805 L 58.942383 191.424805 Z M 62.941406 189.924805 " transform="matrix(1.333333,0,0,1.333333,144,-174.666667)"/>
<path style="fill:none;stroke-width:1;stroke-linecap:round;stroke-linejoin:miter;stroke:rgb(0%,0%,0%);stroke-opacity:1;stroke-miterlimit:10;" d="M 65.030273 189.924805 L 92.132812 189.924805 " transform="matrix(1.333333,0,0,1.333333,144,-174.666667)"/>
<path style="fill-rule:nonzero;fill:rgb(0%,0%,0%);fill-opacity:1;stroke-width:1;stroke-linecap:butt;stroke-linejoin:miter;stroke:rgb(0%,0%,0%);stroke-opacity:1;stroke-miterlimit:10;" d="M 96.131836 189.924805 L 92.132812 188.424805 L 92.132812 191.424805 Z M 96.131836 189.924805 " transform="matrix(1.333333,0,0,1.333333,144,-174.666667)"/>
<path style="fill:none;stroke-width:1;stroke-linecap:round;stroke-linejoin:miter;stroke:rgb(0%,0%,0%);stroke-opacity:1;stroke-miterlimit:10;" d="M 99.28125 189.924805 L 126.383789 189.924805 " transform="matrix(1.333333,0,0,1.333333,144,-174.666667)"/>
<path style="fill-rule:nonzero;fill:rgb(0%,0%,0%);fill-opacity:1;stroke-width:1;stroke-linecap:butt;stroke-linejoin:miter;stroke:rgb(0%,0%,0%);stroke-opacity:1;stroke-miterlimit:10;" d="M 130.382812 189.924805 L 126.383789 188.424805 L 126.383789 191.424805 Z M 130.382812 189.924805 " transform="matrix(1.333333,0,0,1.333333,144,-174.666667)"/>
<path style="fill:none;stroke-width:1;stroke-linecap:round;stroke-linejoin:miter;stroke:rgb(0%,0%,0%);stroke-opacity:1;stroke-miterlimit:10;" d="M 123.811523 171.573242 L 126.383789 171.549805 " transform="matrix(1.333333,0,0,1.333333,144,-174.666667)"/>
<path style="fill-rule:nonzero;fill:rgb(0%,0%,0%);fill-opacity:1;stroke-width:1;stroke-linecap:butt;stroke-linejoin:miter;stroke:rgb(0%,0%,0%);stroke-opacity:1;stroke-miterlimit:10;" d="M 130.382812 171.514648 L 126.366211 170.049805 L 126.395508 173.049805 Z M 130.382812 171.514648 " transform="matrix(1.333333,0,0,1.333333,144,-174.666667)"/>
</g>
</svg>
